<svg id="Capa_1" data-name="Capa 1" xmlns="http://www.w3.org/2000/svg" viewBox="0 0 20 16.92"><defs><style>.cls-1{fill:#fff;}</style></defs><title>cart</title><path class="cls-1" d="M15.38,15.38a1.54,1.54,0,1,0,.45-1.09A1.48,1.48,0,0,0,15.38,15.38Z"/><path class="cls-1" d="M19.77,1.77a.74.74,0,0,0-.54-.23H4.8q0-.08-.05-.31L4.68.88A2.12,2.12,0,0,0,4.59.56,1,1,0,0,0,4.43.26.77.77,0,0,0,4.19.08.73.73,0,0,0,3.85,0H.77A.74.74,0,0,0,.23.23.74.74,0,0,0,0,.77a.74.74,0,0,0,.23.54.74.74,0,0,0,.54.23H3.22l2.13,9.89-.25.46q-.22.41-.35.72a1.32,1.32,0,0,0-.13.47.78.78,0,0,0,.77.77H17.69a.77.77,0,0,0,0-1.54H6.63a2.32,2.32,0,0,0,.29-.77,1.3,1.3,0,0,0,0-.26L6.82,11q0-.17-.05-.26L19.32,9.23A.75.75,0,0,0,19.81,9,.76.76,0,0,0,20,8.46V2.31A.74.74,0,0,0,19.77,1.77Z"/><path class="cls-1" d="M4.62,15.38a1.54,1.54,0,0,0,1.54,1.54A1.54,1.54,0,1,0,5.07,14.3,1.48,1.48,0,0,0,4.62,15.38Z"/></svg>