<svg id="Layer_1" data-name="Layer 1" xmlns="http://www.w3.org/2000/svg" viewBox="0 0 30.01 30.01"><defs><style>.cls-1{fill:#ea000c;}</style></defs><title>clock</title><path class="cls-1" d="M15,.83A14.18,14.18,0,1,1,.83,15,14.19,14.19,0,0,1,15,.83Zm0,1.94A12.24,12.24,0,1,0,27.24,15,12.25,12.25,0,0,0,15,2.77Z"/><path class="cls-1" d="M4.06,15A10.95,10.95,0,1,1,15,26,10.93,10.93,0,0,1,4.06,15Zm11.59-.65V6.18c0-.54-.23-.84-.65-.83s-.64.3-.64.84v8.6c0,.66.2.86.86.86h7.57a.61.61,0,0,0,.58-.71c0-.39-.28-.58-.76-.58h-7Z"/></svg>