<?xml version="1.0" encoding="utf-8"?>
<!-- Generator: Adobe Illustrator 22.1.0, SVG Export Plug-In . SVG Version: 6.00 Build 0)  -->
<svg version="1.1" id="Layer_1" xmlns="http://www.w3.org/2000/svg" xmlns:xlink="http://www.w3.org/1999/xlink" x="0px" y="0px"
	 viewBox="0 0 29.4 34.4" style="enable-background:new 0 0 29.4 34.4;" xml:space="preserve">
<style type="text/css">
	.st0{fill:#EA000C;}
</style>
<title>log in</title>
<g id="Group_41">
	<g id="Group_40">
		<path id="Path_14" class="st0" d="M14.8,0C9.3,0,4.9,4.5,4.9,9.9c0,5.5,4.5,9.9,9.9,9.9c5.5,0,9.9-4.4,9.9-9.9
			C24.7,4.4,20.3,0,14.8,0z"/>
	</g>
</g>
<g id="Group_43">
	<g id="Group_42">
		<path id="Path_15" class="st0" d="M25.6,19.8c-2.7,3.1-6.7,4.9-10.8,4.9c-4.2,0-8.2-1.8-11-4.9C1.3,22.5,0,26,0,29.6V32
			c0,1.3,1.1,2.4,2.4,2.4c0,0,0,0,0,0H27c1.3,0,2.4-1.1,2.4-2.4l0,0v-2.4C29.4,26,28,22.5,25.6,19.8z"/>
	</g>
</g>
</svg>
