<?xml version="1.0" encoding="utf-8"?>
<!-- Generator: Adobe Illustrator 22.1.0, SVG Export Plug-In . SVG Version: 6.00 Build 0)  -->
<svg version="1.1" id="Layer_1" xmlns="http://www.w3.org/2000/svg" xmlns:xlink="http://www.w3.org/1999/xlink" x="0px" y="0px"
	 viewBox="0 0 137.5 80" style="enable-background:new 0 0 137.5 80;" xml:space="preserve">
<style type="text/css">
	.st0{fill:#FFFFFF;}
	.st1{fill:#EA000C;}
</style>
<title>logo</title>
<g>
	<path class="st0" d="M34.7,29.1C32.4,7.4,52.1,4.7,58.5,17.6c0.9,1.9,1.5,3.9,1.7,5.9c1.1,9.3-2,17.5-10,18.9
		C41.3,44,35.5,36.5,34.7,29.1z M72.3,30.6C77.4-6,26.9-10.8,22.7,21.7c-2.1,16.2,6.4,28.6,20.5,30.5C59.6,54.3,70.3,45,72.3,30.6
		L72.3,30.6z"/>
	<path class="st0" d="M81.6,1.3c-0.4,6.6-0.1,14.3-0.1,21c0,6.3-0.6,14.4,1,20.2c1.6,6,5.5,8.4,12.2,8.9c6.4,0.5,13.9,0.1,20.5,0.1
		l-0.2-9.8c-2.9-0.5-15.1,1-18.6-0.3c-4-1.5-2.8-11.6-2.8-16.1c0-6.3,0-10.2,0-16.5l-0.2-7.5L81.6,1.3z"/>
	<path class="st1" d="M106.3,60.4v2.5h4v-2.6L106.3,60.4L106.3,60.4z M133.5,74.6v-2.9c-0.8,0.4-1.8,0.6-2.6,0.4
		c-3-0.6-3.2-4.7-0.6-5.9c0.9-0.3,1.9-0.3,2.7,0.1c1.7,0.9,1.5,3.5,1.5,5.2c0,1.1,0,2.3,0,3.3h3c-0.1-3.2,0.5-7.5-1.3-9.7
		c-2.2-2.5-6.1-2.8-8.6-0.5c-0.8,0.7-1.4,1.7-1.8,2.7c-0.5,1.5-0.4,3.2,0.3,4.7C127.5,74.6,130.7,75.7,133.5,74.6L133.5,74.6z
		 M119.7,71c-0.4,0.4-0.9,0.7-1.5,0.8c-3.9,0.4-4.5-4.8-1.2-5.8c1.2-0.4,2.5,0.1,3.2,1.1s0.5,2.7,0.5,4c0,2.3,0.4,4.5-1.4,5.4
		c-0.6,0.3-1.2,0.4-1.8,0.4c-1.3,0-2.6-0.2-3.9-0.6v2.9c2.1,0.7,4.4,0.8,6.6,0.2c1.8-0.5,3.2-2.1,3.5-4c0.2-2.4,0.2-4.9,0.1-7.3
		c-0.8-7.5-11.2-6.8-11.7,0.1c-0.4,3.1,1.8,5.9,4.9,6.3c1.1,0.2,2.1-0.1,3-0.7L119.7,71z M106.2,74.9h4.1V63.4h-4.1V74.9z
		 M105.1,74.8v-3.3c-1-0.1-3.4,0.2-4-0.4s-0.4-2.8-0.4-3.9c0-2.9,0.1-5.9,0-8.8h-3.5c-0.1,2,0,4.1,0,6.1c0,2-0.1,4.1,0,6.1
		c0.2,3.3,1.9,4.4,4.8,4.4C103,74.9,104.1,74.9,105.1,74.8L105.1,74.8z"/>
	<path class="st0" d="M16.9,65.5c-0.1-1.2-0.4-2.3-1-3.3c-1-1.8-2.6-3.3-4.6-4c-1-0.4-2.3-0.6-3.5-0.5c-1.7,0.1-3.3,0.7-4.6,1.8
		C2,60.4,1,61.7,0.5,63.2c-1,2.8-0.5,6,1.3,8.4c1,1.2,2.3,2.2,3.7,2.7c2.8,1,5.9,0.5,8.3-1.3c1.2-1,2.2-2.2,2.7-3.7
		C16.9,68.1,17.1,66.8,16.9,65.5z M11.1,70.7c-2.5,1.3-5.6,0.4-6.9-2c-0.3-0.6-0.5-1.2-0.6-1.8c-0.4-2.8,1.6-5.4,4.4-5.8
		c0.8-0.1,1.5,0,2.4,0.3c0.6,0.2,1.1,0.5,1.6,0.9c0.9,0.8,1.6,2,1.7,3.3C14,67.7,12.9,69.7,11.1,70.7z"/>
	<path class="st0" d="M73.2,74.7v4.7h3v-4.7c0.7-0.3,1.3-0.2,2.3-1.4c1.2-1.5,0.9-4.6,0.9-6.5c0-1.2,0-2.5,0-3.7h-3
		c0,1.8,0,3.5,0,5.2s0.1,3.5-1.8,3.5s-1.7-2.3-1.7-3.5c0-1.7,0-3.5,0-5.2h-3c0,1.5-0.1,6.2,0,7.5c0.1,1.8,0.9,3.3,2.6,3.9
		C72.7,74.5,73,74.5,73.2,74.7L73.2,74.7z"/>
	<path class="st0" d="M63.8,74.3v-2.9c-0.4,0.3-0.8,0.4-1.2,0.4c-1.6,0.6-3.4-0.3-3.9-1.9s0.3-3.4,1.9-3.9l0,0
		c1.4-0.7,3.1-0.1,3.8,1.3c0.1,0.3,0.2,0.5,0.2,0.8c0.2,2.1,0.3,4.3,0.2,6.4h3c0-1.8,0-3.7,0-5.5c-0.2-6.8-6.6-7.2-9.3-5.2
		c-4.7,3.4-2.8,10.9,3.1,11C62.2,74.8,63,74.6,63.8,74.3L63.8,74.3z"/>
	<path class="st0" d="M89.3,74.3v-2.9c-0.9,0.5-1.9,0.6-2.8,0.4c-3-0.7-2.9-4.9-0.4-5.8c1.4-0.7,3.1-0.1,3.8,1.3
		c0.1,0.3,0.2,0.5,0.2,0.8c0.2,2.1,0.3,4.3,0.1,6.4h3c0-3.2,0.5-7.5-1.3-9.7c-2-2.3-5.5-2.7-8-1c-1.1,0.8-1.9,1.9-2.3,3.2
		c-0.5,1.6-0.4,3.2,0.3,4.7c1,1.9,3,3.1,5.1,3.1C87.8,74.8,88.6,74.6,89.3,74.3L89.3,74.3z"/>
	<path class="st0" d="M44.4,74.5h3c0-1.7,0-3.5,0-5.2c0-1.6-0.1-3.6,1.7-3.6s1.8,1.9,1.8,3.5s0,3.5,0,5.3h3c0-1.8,0.1-6.6-0.1-8.1
		c-0.4-2.2-2.3-3.8-4.6-3.7c-1.1,0-2.2,0.3-3.1,1c-2,1.5-1.7,4.2-1.7,6.6C44.4,71.7,44.4,73.1,44.4,74.5L44.4,74.5z"/>
	<path class="st0" d="M34.8,71.6v2.9c3.1,0,7.3,0.5,7.9-2.6c0.2-0.8,0.1-1.6-0.3-2.3c-0.3-0.5-0.8-1-1.4-1.3
		c-0.6-0.3-1.1-0.6-1.7-0.9c-0.6-0.3-1.5-0.5-1.3-1.3c0.3-0.4,1.4-0.2,2-0.2c0.8,0,1.5,0,2.3,0v-3c-1.6,0-4.6-0.2-5.9,0.5
		c-1.5,0.9-2,2.9-1.1,4.4l0,0c0.9,1.2,3,1.5,3.9,2.4c0.2,0.2,0.5,0.8,0.1,1.1S35.4,71.5,34.8,71.6L34.8,71.6z"/>
	<path class="st0" d="M19,74.5h3V66h2.4v-2.9L22,63c-0.3-2.6,1.3-2,2.3-2.1V58c-1.2-0.1-2.4,0-3.6,0.5c-0.3,0.2-0.6,0.4-0.8,0.6
		c-1,0.9-1,2.8-1,4.4C19,67.2,19,70.8,19,74.5z"/>
	<polygon class="st0" points="27.5,74.5 31.2,74.5 31.2,63.2 31.1,63.2 27.5,63.2 	"/>
	<rect x="27.5" y="59.9" class="st0" width="3.7" height="2.4"/>
</g>
</svg>
