<?xml version="1.0" encoding="utf-8"?>
<!-- Generator: Adobe Illustrator 22.1.0, SVG Export Plug-In . SVG Version: 6.00 Build 0)  -->
<svg version="1.1" id="Capa_1" xmlns="http://www.w3.org/2000/svg" xmlns:xlink="http://www.w3.org/1999/xlink" x="0px" y="0px"
	 viewBox="0 0 30 29.9" style="enable-background:new 0 0 30 29.9;" xml:space="preserve">
<style type="text/css">
	.st0{fill:#EA000C;}
</style>
<title>phone</title>
<path class="st0" d="M29.3,23.7L24.7,19c-1-0.9-2.5-0.9-3.4,0.1L19,21.4l-0.5-0.3c-2.1-1.1-4-2.4-5.6-4.1c-1.6-1.7-3-3.6-4.1-5.6
	L8.6,11l1.6-1.6l0.8-0.8c0.9-0.9,1-2.4,0.1-3.4L6.3,0.7c-1-0.9-2.5-0.9-3.4,0.1c0,0,0,0,0,0L1.6,2l0,0c-0.4,0.6-0.8,1.3-1,2
	C0.3,4.6,0.2,5.3,0.1,5.9c-0.6,5.1,1.7,9.7,8,16c8.7,8.7,15.7,8,16,8c0.7-0.1,1.3-0.2,1.9-0.5c0.7-0.3,1.3-0.6,1.9-1.1l0,0l1.3-1.3
	C30.2,26.1,30.2,24.6,29.3,23.7z"/>
</svg>
