<svg id="Layer_1" data-name="Layer 1" xmlns="http://www.w3.org/2000/svg" viewBox="0 0 20 19.99"><defs><style>.cls-1{fill:#fff;}</style></defs><title>sravn</title><path class="cls-1" d="M20,30.05v-.91c0-.31.11-.4.4-.4h3.8V18.05c0-.14,0-.2-.17-.23l-4.85-1.21h-.13v1.2a2.92,2.92,0,1,1-.66,0v-.4a6.75,6.75,0,0,1,.3-2.45c.11-.35.2-.42.56-.34l4.79,1.2.16,0v-.91s-.06-.09-.1-.13a1.61,1.61,0,1,1,2.68-1.18,1.55,1.55,0,0,1-.54,1.16.29.29,0,0,0-.11.25v1.29l1.13.29L32,17.79c.28.07.36.2.29.48s-.06.28-.1.41A6.71,6.71,0,0,0,32,21s.08.1.13.11a2.81,2.81,0,0,1,2.27,1.85,2.9,2.9,0,0,1-3.58,3.78,2.76,2.76,0,0,1-2-2.3,2.88,2.88,0,0,1,2.36-3.32h.16V19.7l-5.15-1.34v10.4h3.77c.31,0,.41.1.41.41v.87h4.38c.36,0,.45.1.45.45v1.05c0,.35-.11.43-.45.43H15.63c-.36,0-.45-.08-.45-.48v-1c0-.35.11-.43.42-.43Zm9.36-6.13a2.27,2.27,0,1,0,2.3-2.25h0A2.27,2.27,0,0,0,29.38,23.92ZM21,20.71a2.27,2.27,0,1,0-2.31,2.23h0A2.27,2.27,0,0,0,21,20.72Z" transform="translate(-15.18 -12)"/><path class="cls-1" d="M32.87,22.8l-.21.34L31.3,25.31c-.2.31-.45.31-.64,0l-.6-.91.53-.35.37.55,1.36-2.15Z" transform="translate(-15.18 -12)"/><path class="cls-1" d="M20.24,21.74l-.45.45-1.05-1.05L17.68,22.2l-.43-.45,1-1-1.08-1.06.45-.45,1,1.05,1.06-1.06.41.45-1,1Z" transform="translate(-15.18 -12)"/></svg>